# xmcd CD database file generated by Grip 2.94
# 
# Track frame offsets:
#       150
#       16395
#       42937
#       60090
#       78357
#       94647
#       111877
#       128895
#       147520
#       161625
#       178852
#       193235
#       207897
#       228672
# 
# Disc length: 3302 seconds
# 
# Revision: 3
# Processed by: cddbd v1.5.2PL0 Copyright (c) Steve Scherf et al.
# Submitted via: Grip 2.94
# 
DISCID=bf0ce40e
DTITLE=B. B. King - Makin' Love Is Good For You
DYEAR=2000
DGENRE=Blues
TTITLE0=I Got To Leave This Woman
TTITLE1=Since I Fell For You
TTITLE2=I Know
TTITLE3=Peace Of Mind
TTITLE4=Monday Woman
TTITLE5=Ain't No One Like My Baby
TTITLE6=Makin' Love Is Good For You
TTITLE7=Don't Go No Further
TTITLE8=Actions Speak Louder Than Words
TTITLE9=What You Bet
TTITLE10=You're On Top
TTITLE11=Too Good To You baby
TTITLE12=I'm In The Wrong Business
TTITLE13=She's My Baby
EXTD=
EXTT0=
EXTT1=
EXTT2=
EXTT3=
EXTT4=
EXTT5=
EXTT6=
EXTT7=
EXTT8=
EXTT9=
EXTT10=
EXTT11=
EXTT12=
EXTT13=
PLAYORDER=
